<svg width="512" height="512" viewBox="0 0 512 512" fill="none" xmlns="http://www.w3.org/2000/svg">
  <rect width="512" height="512" rx="128" fill="#2563EB"/>
  <path d="M362.7 108.3C372.2 117.8 377.5 130.7 377.5 144.1C377.5 157.5 372.2 170.4 362.7 179.9L191.9 350.7C186.2 356.4 179 360.3 171.1 362.1L123.6 373.1C117.4 374.5 111.3 371.9 108.3 366.5C105.3 361.1 106.1 354.3 110.4 349.8L121.4 338.8L132.8 327.4L144.1 316.1L316.3 144.1C325.8 134.6 338.7 129.3 352.1 129.3C365.5 129.3 378.4 134.6 387.9 144.1L362.7 118.9L362.7 108.3ZM362.7 108.3L387.9 133.5" stroke="white" stroke-width="32" stroke-linecap="round" stroke-linejoin="round"/>
  <path d="M312 153L359 200" stroke="white" stroke-width="32" stroke-linecap="round" stroke-linejoin="round"/>
  <path d="M140 372L220 372" stroke="white" stroke-width="32" stroke-linecap="round" stroke-linejoin="round"/>
</svg>
